<?xml version="1.0" encoding="UTF-8" standalone="no"?>
<svg
   xmlns:dc="http://purl.org/dc/elements/1.1/"
   xmlns:cc="http://creativecommons.org/ns#"
   xmlns:rdf="http://www.w3.org/1999/02/22-rdf-syntax-ns#"
   xmlns:svg="http://www.w3.org/2000/svg"
   xmlns="http://www.w3.org/2000/svg"
   xmlns:sodipodi="http://sodipodi.sourceforge.net/DTD/sodipodi-0.dtd"
   xmlns:inkscape="http://www.inkscape.org/namespaces/inkscape"
   viewBox="0 0 245 240"
   inkscape:version="0.92.5 (2060ec1f9f, 2020-04-08)">
  <metadata id="metadata13">
    <rdf:RDF>
      <cc:Work rdf:about="">
        <dc:format>image/svg+xml</dc:format>
        <dc:type rdf:resource="http://purl.org/dc/dcmitype/StillImage" />
        <dc:title></dc:title>
      </cc:Work>
    </rdf:RDF>
  </metadata>
    <path fill="white" d="m 83.189963,114.09088 c -12.277667,0 -21.970567,10.76988 -21.970567,23.90913 0,13.13923 9.9083,23.90911 21.970567,23.90911 12.277661,0 21.970547,-10.76988 21.970547,-23.90911 0.21538,-13.13925 -9.692886,-23.90913 -21.970547,-23.90913 z m 78.620097,0 c -12.27766,0 -21.97056,10.76988 -21.97056,23.90913 0,13.13923 9.9083,23.90911 21.97056,23.90911 12.27766,0 21.97054,-10.76988 21.97054,-23.90911 0,-13.13925 -9.69288,-23.90913 -21.97054,-23.90913 z m 19.00328,99.96223 c 0,0 -7.55135,-9.01486 -13.84417,-16.98151 27.47861,-7.75698 37.96663,-24.94814 37.96663,-24.94814 -8.60018,5.66052 -16.78083,9.64383 -24.12246,12.36925 -10.488,4.40261 -20.55648,7.3377 -30.41522,9.01488 -20.13699,3.77367 -38.5959,2.72543 -54.327899,-0.20965 -11.956356,-2.30613 -22.234608,-5.6605 -30.83477,-9.01486 -4.824492,-1.88683 -10.06849,-4.19297 -15.312505,-7.12805 -0.629287,-0.4193 -1.258556,-0.62894 -1.887843,-1.04823 -0.419523,-0.20965 -0.629285,-0.4193 -0.839048,-0.62895 -3.775681,-2.09648 -5.873283,-3.56402 -5.873283,-3.56402 0,0 10.068489,16.77185 36.708047,24.7385 -6.292815,7.96662 -14.05394,17.40078 -14.05394,17.40078 C 17.619871,212.58558 -2.75e-6,182.18659 -2.75e-6,182.18659 -2.75e-6,114.67986 30.205487,59.961684 30.205487,59.961684 60.410959,37.319683 89.14812,37.94863 89.14812,37.94863 l 2.097602,2.515773 c -37.756857,10.901711 -55.16695,27.463916 -55.16695,27.463916 0,0 4.61473,-2.515786 12.375856,-6.079796 22.444346,-9.853462 40.273968,-12.578893 47.615593,-13.207852 1.258552,-0.209632 2.307361,-0.419277 3.565918,-0.419277 12.795361,-1.677182 27.268821,-2.096484 42.371551,-0.419302 19.92724,2.306129 41.32278,8.17628 63.13785,20.126227 0,0 -16.57104,-15.723614 -52.23029,-26.625325 l 2.93665,-3.354364 c 0,0 28.73713,-0.628947 58.94262,22.013054 0,0 30.20548,54.718176 30.20548,122.224906 0,0 -17.82963,30.39899 -64.18666,31.86652 z" />
</svg>
