<?xml version="1.0" encoding="UTF-8" standalone="no"?>
<svg
   xmlns:dc="http://purl.org/dc/elements/1.1/"
   xmlns:cc="http://creativecommons.org/ns#"
   xmlns:rdf="http://www.w3.org/1999/02/22-rdf-syntax-ns#"
   xmlns:svg="http://www.w3.org/2000/svg"
   xmlns="http://www.w3.org/2000/svg"
   xmlns:sodipodi="http://sodipodi.sourceforge.net/DTD/sodipodi-0.dtd"
   xmlns:inkscape="http://www.inkscape.org/namespaces/inkscape"
   viewBox="0 0 333 333"><metadata><rdf:RDF><cc:Work rdf:about=""><dc:format>image/svg+xml</dc:format></cc:Work></rdf:RDF></metadata><defs/>
	<path d="M323,31.5H10c-5.5,0-10,4.5-10,10s4.5,10,10,10h313c5.5,0,10-4.5,10-10S328.5,31.5,323,31.5z" id="path2" style="fill:#ffffff"/>
	<path d="M230,114.5H10c-5.5,0-10,4.5-10,10s4.5,10,10,10h220c5.5,0,10-4.5,10-10S235.5,114.5,230,114.5z" id="path4" style="fill:#ffffff"/>
	<path d="M323,198.5H10c-5.5,0-10,4.5-10,10s4.5,10,10,10h313c5.5,0,10-4.5,10-10S328.5,198.5,323,198.5z" id="path6" style="fill:#ffffff"/>
	<path d="M151,281.5H10c-5.5,0-10,4.5-10,10s4.5,10,10,10h141c5.5,0,10-4.5,10-10S156.5,281.5,151,281.5z" id="path8" style="fill:#ffffff"/>
</svg>