<?xml version="1.0" encoding="UTF-8" standalone="no"?>
<svg
   xmlns:dc="http://purl.org/dc/elements/1.1/"
   xmlns:cc="http://creativecommons.org/ns#"
   xmlns:rdf="http://www.w3.org/1999/02/22-rdf-syntax-ns#"
   xmlns:svg="http://www.w3.org/2000/svg"
   xmlns="http://www.w3.org/2000/svg"
   xmlns:sodipodi="http://sodipodi.sourceforge.net/DTD/sodipodi-0.dtd"
   xmlns:inkscape="http://www.inkscape.org/namespaces/inkscape"
   version="1.1"
   id="Layer_1"
   x="0px"
   y="0px"
   viewBox="0 0 291.319 291.319"
   style="enable-background:new 0 0 291.319 291.319;"
   xml:space="preserve"
   sodipodi:docname="twitter.svg"
   inkscape:version="0.92.5 (2060ec1f9f, 2020-04-08)"><metadata
   id="metadata9"><rdf:RDF><cc:Work
       rdf:about=""><dc:format>image/svg+xml</dc:format><dc:type
         rdf:resource="http://purl.org/dc/dcmitype/StillImage" /></cc:Work></rdf:RDF></metadata><defs
   id="defs7" /><sodipodi:namedview
   pagecolor="#ffffff"
   bordercolor="#666666"
   borderopacity="1"
   objecttolerance="10"
   gridtolerance="10"
   guidetolerance="10"
   inkscape:pageopacity="0"
   inkscape:pageshadow="2"
   inkscape:window-width="1864"
   inkscape:window-height="1024"
   id="namedview5"
   showgrid="false"
   inkscape:zoom="2"
   inkscape:cx="154.55629"
   inkscape:cy="99.513302"
   inkscape:window-x="56"
   inkscape:window-y="30"
   inkscape:window-maximized="1"
   inkscape:current-layer="Layer_1" />
	<path
   style="fill:#ffffff"
   d="m 291.31721,59.178149 c -10.71376,4.628652 -22.24245,7.740239 -34.33521,9.151228 12.35543,-7.18965 21.82825,-18.548286 26.28852,-32.112647 -11.55731,6.667685 -24.3421,11.496705 -37.96875,14.086326 -10.89897,-11.266029 -26.42661,-18.302457 -43.62451,-18.302457 -32.98651,0 -59.74986,25.951773 -59.74986,57.986967 0,4.552884 0.52196,8.982854 1.54737,13.229294 C 93.81062,100.79562 49.756756,77.694443 20.296028,42.608278 15.14541,51.176927 12.2022,61.124573 12.2022,71.762562 c 0,20.110814 10.545381,37.891308 26.579816,48.269998 -9.809579,-0.30644 -19.007953,-2.89776 -27.084944,-7.26543 v 0.73581 c 0,28.11203 20.600788,51.54996 47.946715,56.8841 -5.012549,1.31839 -10.286083,2.03904 -15.743144,2.03904 -3.847389,0 -7.587017,-0.3519 -11.235722,-1.04224 7.60217,23.05402 29.676248,39.82257 55.841859,40.28392 -20.46272,15.5731 -46.230965,24.83208 -74.235241,24.83208 -4.8290197,0 -9.580587,-0.27614 -14.271539,-0.81158 26.472056,16.46212 57.865739,26.07301 91.633521,26.07301 109.935969,0 170.054579,-88.41418 170.054579,-165.05719 l -0.16838,-7.511248 c 11.64825,-8.156127 21.78111,-18.364756 29.79749,-30.014683 z"
   id="path2"
   inkscape:connector-curvature="0" />
</svg>